HIERARCHY
ROOT Hips
{
	OFFSET 0.000000 0.000000 0.000000
	CHANNELS 6 Xposition Yposition Zposition Zrotation Xrotation Yrotation
	JOINT RightUpLeg
	{
		OFFSET -10.795800 0.000000 0.000000
		CHANNELS 3 Zrotation Xrotation Yrotation
		JOINT RightLeg
		{
			OFFSET 0.000000 -39.557900 0.000000
			CHANNELS 3 Zrotation Xrotation Yrotation
			JOINT RightFoot
			{
				OFFSET 0.000000 -40.613400 0.000000
				CHANNELS 3 Zrotation Xrotation Yrotation
				JOINT RightToe
				{
					OFFSET 0.000000 -1.003500 12.392200
					CHANNELS 3 Zrotation Xrotation Yrotation
					JOINT RightToeEnd
					{
						OFFSET 0.000000 1.088300 5.767000
						CHANNELS 3 Zrotation Xrotation Yrotation
						End Site
						{
						    OFFSET 0.000000 0.927200 4.913300
						}
					}
				}
			}
		}
	}
	JOINT LeftUpLeg
	{
		OFFSET 10.795800 0.000000 0.000000
		CHANNELS 3 Zrotation Xrotation Yrotation
		JOINT LeftLeg
		{
			OFFSET 0.000000 -39.557900 0.000000
			CHANNELS 3 Zrotation Xrotation Yrotation
			JOINT LeftFoot
			{
				OFFSET 0.000000 -40.613400 0.000000
				CHANNELS 3 Zrotation Xrotation Yrotation
				JOINT LeftToe
				{
					OFFSET 0.000000 -1.003500 12.392200
					CHANNELS 3 Zrotation Xrotation Yrotation
					JOINT LeftToeEnd
					{
						OFFSET 0.000000 1.088300 5.767000
						CHANNELS 3 Zrotation Xrotation Yrotation
						End Site
						{
						    OFFSET 0.000000 0.927200 4.913300
						}
					}
				}
			}
		}
	}
	JOINT Spine
	{
		OFFSET 0.000000 15.108100 0.000000
		CHANNELS 3 Zrotation Xrotation Yrotation
		JOINT Spine1
		{
			OFFSET 0.000000 12.828000 0.000000
			CHANNELS 3 Zrotation Xrotation Yrotation
			JOINT Spine2
			{
				OFFSET 0.000000 11.155500 0.000000
				CHANNELS 3 Zrotation Xrotation Yrotation
				JOINT LeftShoulder
				{
					OFFSET 2.000000 11.155500 0.000000
					CHANNELS 3 Zrotation Xrotation Yrotation
					JOINT LeftArm
					{
						OFFSET 15.139800 0.000000 0.000000
						CHANNELS 3 Zrotation Xrotation Yrotation
						JOINT LeftForeArm
						{
							OFFSET 0.000000 -26.627300 0.000000
							CHANNELS 3 Zrotation Xrotation Yrotation
							JOINT LeftHand
							{
								OFFSET 0.000000 -24.932400 0.000000
								CHANNELS 3 Zrotation Xrotation Yrotation
								JOINT LeftFinger0
								{
									OFFSET 0.000000 -8.640100 0.000000
									CHANNELS 3 Zrotation Xrotation Yrotation
									End Site
									{
									    OFFSET 0.000000 -5.000000 0.000000
									}
								}
							}
						}
					}
				}
				JOINT RightShoulder
				{
					OFFSET -2.000000 11.155500 0.000000
					CHANNELS 3 Zrotation Xrotation Yrotation
					JOINT RightArm
					{
						OFFSET -15.139800 0.000000 0.000000
						CHANNELS 3 Zrotation Xrotation Yrotation
						JOINT RightForeArm
						{
							OFFSET 0.000000 -26.627300 0.000000
							CHANNELS 3 Zrotation Xrotation Yrotation
							JOINT RightHand
							{
								OFFSET 0.000000 -24.932400 0.000000
								CHANNELS 3 Zrotation Xrotation Yrotation
								JOINT RightFinger0
								{
									OFFSET 0.000000 -8.640100 0.000000
									CHANNELS 3 Zrotation Xrotation Yrotation
									End Site
									{
									    OFFSET 0.000000 -5.000000 0.000000
									}
								}
							}
						}
					}
				}
				JOINT Neck
				{
					OFFSET 0.000000 11.155500 0.000000
					CHANNELS 3 Zrotation Xrotation Yrotation
					JOINT Head
					{
						OFFSET 0.000000 10.940000 0.000000
						CHANNELS 3 Zrotation Xrotation Yrotation
						JOINT HeadTip
						{
							OFFSET 0.000000 10.000000 0.000000
							CHANNELS 3 Zrotation Xrotation Yrotation
							End Site
							{
							    OFFSET 0.000000 5.000000 0.000000
							}
						}
					}
				}
			}
		}
	}
}
MOTION
Frames:	12
Frame Time:	0.033332
64.178200 86.428200 -24.641000 -0.590888 -2.147044 -0.838009 2.022440 0.967531 -7.555865 0.000000 7.212429 -0.000000 9.100718 2.948392 -17.849613 0.000000 0.983411 0.000000 0.000000 0.000000 -0.000000 -2.255077 0.097698 3.533533 0.000000 6.847378 -0.000000 -6.001006 7.687783 19.531276 -0.000000 -8.976643 0.000000 0.000000 0.000000 -0.000000 -1.174168 2.355915 -1.119228 -0.000000 0.988440 -0.000000 0.000000 0.000000 -0.000000 6.014203 -0.000000 5.967486 76.994700 -8.902891 20.473423 -0.000000 -24.686728 0.000000 -11.214027 17.081266 -34.229705 0.000000 0.000000 0.000000 -6.074506 0.000000 -8.330060 -71.635865 -10.918614 -20.161852 -0.000043 -15.633070 -0.000006 4.967223 8.313313 15.963937 -0.000000 0.000000 -0.000000 0.000000 0.000000 -0.000000 4.244898 14.180795 0.397485 0.000000 0.000000 -0.000000 
64.177000 86.431400 -24.653800 -0.595078 -2.131562 -0.838259 2.030321 0.963043 -7.481198 -0.000000 7.174526 0.000000 9.162266 2.950182 -17.898817 0.000000 1.017942 -0.000000 0.000000 0.000000 0.000000 -2.250958 0.070891 3.537137 -0.000000 6.850498 0.000000 -5.986478 7.698696 19.518040 -0.000000 -8.911586 -0.000000 0.000000 0.000000 -0.000000 -1.178819 2.356736 -1.114196 -0.000000 0.970965 -0.000000 0.000000 0.000000 -0.000000 6.019889 -0.000000 5.955868 76.954388 -8.883084 20.547707 -0.000000 -24.756359 0.000000 -11.161114 16.985107 -34.150135 -0.000000 0.000000 -0.000000 -6.059426 0.000000 -8.336733 -71.653699 -10.898160 -20.006173 -0.000043 -15.746407 -0.000006 4.998034 8.308331 16.099148 -0.000000 0.000000 -0.000000 0.000000 0.000000 -0.000000 4.245722 14.204411 0.413428 -0.000000 0.000000 -0.000000 
64.177600 86.430500 -24.661900 -0.597738 -2.116095 -0.874406 2.029442 0.933714 -7.455374 -0.000000 7.182277 0.000000 9.130477 3.006166 -17.870790 -0.000000 0.864475 -0.000000 0.000000 0.000000 -0.000000 -2.244050 0.049560 3.577022 0.000000 6.858662 -0.000000 -6.014157 7.696423 19.497558 0.000000 -8.904022 -0.000000 -0.000000 0.000000 0.000000 -1.195437 2.344694 -1.097156 0.000000 0.970803 -0.000000 -0.000000 0.000000 -0.000000 6.030613 -0.000000 5.984823 76.915753 -8.874482 20.556708 -0.000000 -24.803301 0.000000 -11.169077 16.900699 -33.968080 0.000000 0.000000 -0.000000 -6.032623 0.000000 -8.326041 -71.674022 -10.921071 -20.021875 -0.000043 -15.758959 -0.000006 5.064702 8.294629 16.143716 -0.000000 0.000000 -0.000000 -0.000000 0.000000 -0.000000 4.276351 14.213309 0.446461 -0.000000 0.000000 0.000000 
64.185800 86.433400 -24.666600 -0.600641 -2.145041 -0.898090 2.023822 0.955471 -7.422060 0.000000 7.184325 -0.000000 9.063873 2.976276 -17.882487 -0.000000 1.058969 -0.000000 0.000000 -0.000000 -0.000000 -2.251990 0.076633 3.573963 0.000000 6.860757 0.000000 -5.981947 7.696843 19.548925 -0.000000 -8.929672 -0.000000 -0.000000 0.000000 -0.000000 -1.190201 2.396985 -1.087995 0.000000 0.957832 -0.000000 0.000000 -0.000000 -0.000000 6.009644 -0.000000 6.004905 76.886962 -8.910012 20.559684 -0.000000 -24.771069 -0.000000 -11.205384 16.888060 -34.125043 0.000000 0.000000 0.000000 -6.031123 0.000000 -8.310056 -71.689085 -10.932630 -19.981936 -0.000043 -15.780305 -0.000006 5.065679 8.327221 16.083318 0.000000 0.000000 -0.000000 0.000000 -0.000000 -0.000000 4.275524 14.205401 0.455334 -0.000000 0.000000 -0.000000 
64.198600 86.431400 -24.680700 -0.599547 -2.111422 -0.909731 2.008652 0.887363 -7.474698 -0.000000 7.234260 0.000000 9.139563 3.001393 -17.820760 0.000000 0.946279 0.000000 -0.000000 0.000000 0.000000 -2.259808 0.029093 3.583996 -0.000000 6.866498 0.000000 -6.021085 7.686288 19.534697 0.000000 -8.893461 0.000000 0.000000 0.000000 -0.000000 -1.184262 2.363299 -1.086814 -0.000000 0.959959 0.000000 -0.000000 0.000000 -0.000000 5.973887 -0.000000 5.997250 76.850837 -8.892260 20.532231 -0.000000 -24.769270 -0.000000 -11.214485 16.856885 -34.182765 -0.000000 0.000000 -0.000000 -6.024987 0.000000 -8.308458 -71.693486 -10.980761 -20.028499 -0.000043 -15.766356 -0.000006 4.973760 8.359779 16.249213 0.000000 0.000000 -0.000000 -0.000000 0.000000 -0.000000 4.269975 14.207115 0.431617 0.000000 0.000000 -0.000000 
64.210800 86.432800 -24.682300 -0.594964 -2.106439 -0.896072 1.995543 0.894300 -7.489744 0.000000 7.216587 -0.000000 9.167817 2.983550 -17.812744 0.000000 0.987675 -0.000000 -0.000000 0.000000 0.000000 -2.275085 0.036532 3.548832 -0.000000 6.837378 -0.000000 -6.005088 7.703887 19.562881 -0.000000 -8.900870 0.000000 0.000000 -0.000000 -0.000000 -1.188898 2.368039 -1.092206 -0.000000 0.927466 -0.000000 -0.000000 0.000000 0.000000 5.941852 0.000000 5.966361 76.843605 -8.842220 20.392239 0.000000 -24.794722 -0.000000 -11.367850 16.826460 -34.135106 0.000000 -0.000000 -0.000000 -6.043495 -0.000000 -8.290148 -71.654519 -10.976595 -20.036403 -0.000043 -15.765439 -0.000006 5.031010 8.322351 16.242624 -0.000000 0.000000 -0.000000 -0.000000 0.000000 0.000000 4.289925 14.269114 0.369274 -0.000000 -0.000000 0.000000 
64.217100 86.431400 -24.687300 -0.595400 -2.086861 -0.884818 1.996412 0.873996 -7.505196 0.000000 7.205195 -0.000000 9.107942 2.997048 -17.820308 0.000000 1.022987 0.000000 0.000000 0.000000 -0.000000 -2.277932 0.018318 3.540069 -0.000000 6.825399 -0.000000 -6.015908 7.707289 19.559176 -0.000000 -8.906043 0.000000 0.000000 0.000000 -0.000000 -1.196693 2.359021 -1.116996 0.000000 0.922289 0.000000 0.000000 -0.000000 0.000000 5.910630 0.000000 6.004138 76.819036 -8.859670 20.469093 -0.000000 -24.838704 -0.000000 -11.587777 16.832570 -34.093780 0.000000 -0.000000 -0.000000 -6.037040 0.000000 -8.295155 -71.630234 -10.968386 -19.946828 -0.000043 -15.890785 -0.000006 5.132133 8.349431 16.104568 -0.000000 0.000000 -0.000000 0.000000 -0.000000 0.000000 4.304890 14.252812 0.319663 -0.000000 0.000000 0.000000 
64.221600 86.431800 -24.686800 -0.597881 -2.096949 -0.872362 1.994745 0.881853 -7.484763 -0.000000 7.209634 -0.000000 9.079782 2.993629 -17.845441 0.000000 0.984335 -0.000000 0.000000 0.000000 -0.000000 -2.279860 0.036200 3.552991 0.000000 6.811831 -0.000000 -5.982524 7.730983 19.550850 0.000000 -8.945133 -0.000000 -0.000000 0.000000 0.000000 -1.209230 2.367396 -1.110143 0.000000 0.933822 -0.000000 0.000000 0.000000 0.000000 5.882579 0.000000 6.016446 76.814385 -8.888855 20.596406 -0.000000 -24.878822 -0.000000 -11.934437 16.760726 -33.748840 -0.000000 0.000000 -0.000000 -6.012858 0.000000 -8.331667 -71.602936 -10.987351 -20.001328 -0.000043 -15.954340 -0.000006 5.200625 8.336522 16.053749 0.000000 0.000000 -0.000000 0.000000 0.000000 0.000000 4.322809 14.250111 0.244784 0.000000 0.000000 -0.000000 
64.232500 86.431800 -24.691500 -0.594752 -2.080325 -0.838017 1.988436 0.849450 -7.540415 0.000000 7.242376 -0.000000 9.172075 3.008811 -17.852106 -0.000000 0.813886 -0.000000 0.000000 0.000000 -0.000000 -2.286510 -0.002131 3.544136 -0.000000 6.842213 0.000000 -5.980732 7.734055 19.535853 0.000000 -8.997703 -0.000000 -0.000000 0.000000 -0.000000 -1.218088 2.339487 -1.137740 0.000000 0.957236 -0.000000 0.000000 0.000000 -0.000000 5.853659 -0.000000 6.039405 76.778470 -8.888570 20.846842 -0.000000 -24.990834 -0.000000 -12.229610 16.596865 -33.169392 -0.000000 0.000000 -0.000000 -6.009662 -0.000000 -8.342448 -71.579433 -10.982916 -19.869489 -0.000044 -15.999064 -0.000006 5.340697 8.330066 15.926670 -0.000000 0.000000 -0.000000 0.000000 0.000000 -0.000000 4.326251 14.270286 0.220218 -0.000000 0.000000 -0.000000 
64.243300 86.430600 -24.690500 -0.602740 -2.100610 -0.829288 1.983358 0.867808 -7.539349 0.000000 7.252245 0.000000 9.166395 2.972712 -17.827224 -0.000000 0.988393 -0.000000 -0.000000 -0.000000 0.000000 -2.284414 0.007517 3.537287 -0.000000 6.860929 -0.000000 -5.980454 7.712385 19.504478 -0.000000 -8.906803 0.000000 -0.000000 -0.000000 0.000000 -1.217654 2.347199 -1.128150 -0.000000 0.980878 -0.000000 -0.000000 -0.000000 -0.000000 5.846590 0.000000 6.035846 76.763006 -8.871231 20.879183 -0.000000 -25.158894 0.000000 -12.237220 16.509948 -32.771880 0.000000 0.000000 -0.000000 -5.995563 0.000000 -8.343108 -71.579920 -11.004390 -19.758477 -0.000044 -15.987837 -0.000006 5.502888 8.431505 16.116245 -0.000000 0.000000 -0.000000 -0.000000 -0.000000 -0.000000 4.322754 14.308433 0.209762 0.000000 -0.000000 -0.000000 
64.255100 86.429900 -24.692300 -0.611028 -2.122793 -0.825072 1.983163 0.881027 -7.534555 0.000000 7.263590 -0.000000 9.145486 2.983200 -17.843230 -0.000000 0.971658 -0.000000 0.000000 0.000000 -0.000000 -2.281668 -0.008878 3.504418 0.000000 6.932131 -0.000000 -6.008920 7.680736 19.522097 -0.000000 -8.916857 -0.000000 -0.000000 0.000000 -0.000000 -1.211549 2.371567 -1.116536 0.000000 0.999421 -0.000000 -0.000000 0.000000 0.000000 5.830100 0.000000 6.069011 76.774602 -8.918270 20.939760 0.000000 -25.320966 -0.000000 -12.031276 16.525125 -33.088802 0.000000 0.000000 0.000000 -5.994817 0.000000 -8.347284 -71.566931 -11.055507 -19.868854 -0.000043 -15.894449 -0.000006 5.446400 8.480818 16.251590 0.000000 0.000000 -0.000000 -0.000000 0.000000 0.000000 4.305981 14.332812 0.236497 0.000000 0.000000 0.000000 
64.263900 86.429300 -24.699900 -0.612532 -2.131526 -0.823122 1.980696 0.886147 -7.530307 -0.000000 7.260689 -0.000000 9.133021 2.980192 -17.857119 -0.000000 1.017628 0.000000 -0.000000 0.000000 0.000000 -2.282404 -0.058935 3.511965 0.000000 7.038456 0.000000 -6.002560 7.659504 19.509667 0.000000 -8.928741 -0.000000 -0.000000 0.000000 -0.000000 -1.220417 2.381992 -1.101589 -0.000000 1.030459 -0.000000 0.000000 -0.000000 -0.000000 5.857072 0.000000 6.078016 76.804903 -8.942999 20.901850 0.000000 -25.385752 -0.000000 -12.025008 16.480952 -33.196719 -0.000000 0.000000 -0.000000 -5.976953 0.000000 -8.382747 -71.613113 -11.104623 -19.910937 -0.000043 -15.861292 -0.000006 5.498666 8.556708 16.368337 -0.000000 0.000000 -0.000000 0.000000 -0.000000 -0.000000 4.304648 14.321609 0.272081 -0.000000 0.000000 -0.000000 
